<?xml version="1.0" encoding="utf-8"?>
<!-- Generator: Adobe Illustrator 24.0.1, SVG Export Plug-In . SVG Version: 6.00 Build 0)  -->
<svg version="1.1" baseProfile="basic" id="Camada_1"
	 xmlns="http://www.w3.org/2000/svg" xmlns:xlink="http://www.w3.org/1999/xlink" x="0px" y="0px" viewBox="0 0 172 24"
	 xml:space="preserve">
<path fill="#136300" d="M0,13.66c0-1.53,0.3-2.89,0.91-4.07C1.54,8.42,2.38,7.5,3.44,6.86c1.08-0.66,2.27-1,3.58-1
	c0.97,0,1.92,0.22,2.85,0.66c0.95,0.42,1.7,1,2.26,1.71V0.89h3.09v20.47h-3.09v-2.3c-0.5,0.74-1.2,1.35-2.1,1.83
	c-0.88,0.48-1.89,0.72-3.04,0.72c-1.29,0-2.47-0.33-3.55-1c-1.06-0.68-1.9-1.62-2.53-2.82C0.3,16.57,0,15.19,0,13.66z M12.13,13.72
	c0-1.05-0.22-1.96-0.65-2.74c-0.41-0.77-0.96-1.36-1.64-1.77C9.16,8.8,8.43,8.6,7.64,8.6c-0.79,0-1.52,0.2-2.21,0.61
	C4.75,9.6,4.2,10.18,3.77,10.95c-0.41,0.76-0.62,1.66-0.62,2.71c0,1.05,0.21,1.97,0.62,2.77c0.43,0.79,0.99,1.4,1.67,1.83
	c0.7,0.41,1.43,0.61,2.21,0.61c0.79,0,1.52-0.2,2.21-0.61c0.68-0.41,1.23-1,1.64-1.77C11.92,15.69,12.13,14.77,12.13,13.72z"/>
<path fill="#136300" d="M32.83,13.36c0,0.57-0.04,1.09-0.11,1.55H21.4c0.09,1.22,0.53,2.19,1.32,2.93c0.79,0.74,1.76,1.11,2.9,1.11
	c1.65,0,2.82-0.71,3.5-2.13h3.31c-0.45,1.4-1.26,2.55-2.45,3.46c-1.17,0.89-2.62,1.33-4.36,1.33c-1.42,0-2.69-0.32-3.82-0.97
	c-1.11-0.66-1.99-1.59-2.64-2.77c-0.63-1.2-0.94-2.58-0.94-4.15s0.3-2.94,0.91-4.12c0.63-1.2,1.5-2.12,2.61-2.77
	c1.13-0.65,2.42-0.97,3.87-0.97c1.4,0,2.64,0.31,3.74,0.94c1.09,0.63,1.95,1.51,2.56,2.66C32.53,10.58,32.83,11.88,32.83,13.36z
	 M29.63,12.36c-0.02-1.16-0.42-2.09-1.21-2.79c-0.79-0.7-1.77-1.05-2.93-1.05c-1.06,0-1.96,0.35-2.72,1.05
	c-0.75,0.68-1.2,1.61-1.34,2.79H29.63z"/>
<path fill="#136300" d="M41.58,18.53l4.2-12.42h3.25l-5.65,15.24h-3.66L34.1,6.11h3.28L41.58,18.53z"/>
<path fill="#136300" d="M52.59,21.54c-0.56,0-1.02-0.19-1.4-0.58c-0.38-0.39-0.56-0.87-0.56-1.44c0-0.57,0.19-1.05,0.56-1.44
	c0.38-0.39,0.84-0.58,1.4-0.58c0.54,0,1,0.19,1.37,0.58c0.38,0.39,0.56,0.87,0.56,1.44c0,0.57-0.19,1.05-0.56,1.44
	C53.58,21.35,53.12,21.54,52.59,21.54z"/>
<path fill="#136300" d="M64.05,8.68h-2.74v12.67h-3.09V8.68h-1.75V6.11h1.75V5.03c0-1.75,0.45-3.02,1.34-3.82
	C60.47,0.41,61.9,0,63.83,0v2.63c-0.93,0-1.59,0.18-1.96,0.55c-0.38,0.35-0.56,0.97-0.56,1.85v1.08h2.74V8.68z"/>
<path fill="#136300" d="M68.33,4.09c-0.56,0-1.02-0.19-1.4-0.58c-0.38-0.39-0.56-0.87-0.56-1.44c0-0.57,0.19-1.05,0.56-1.44
	c0.38-0.39,0.84-0.58,1.4-0.58c0.54,0,1,0.19,1.37,0.58c0.38,0.39,0.56,0.87,0.56,1.44c0,0.57-0.19,1.05-0.56,1.44
	C69.32,3.9,68.87,4.09,68.33,4.09z M69.83,6.11v15.24h-3.07V6.11H69.83z"/>
<path fill="#136300" d="M81.34,5.86c1.17,0,2.21,0.25,3.12,0.75c0.93,0.5,1.66,1.24,2.18,2.21c0.52,0.98,0.78,2.16,0.78,3.54v8.99
	h-3.04v-8.52c0-1.36-0.33-2.41-1-3.13c-0.66-0.74-1.57-1.11-2.72-1.11s-2.06,0.37-2.74,1.11c-0.66,0.72-1,1.76-1,3.13v8.52h-3.07
	V6.11h3.07v1.74c0.5-0.63,1.14-1.12,1.91-1.47C79.62,6.04,80.46,5.86,81.34,5.86z"/>
<path fill="#136300" d="M90.3,13.66c0-1.53,0.3-2.89,0.91-4.07c0.63-1.18,1.47-2.09,2.53-2.74c1.08-0.66,2.26-1,3.55-1
	c1.17,0,2.18,0.24,3.04,0.72c0.88,0.46,1.58,1.04,2.1,1.74V6.11h3.09v15.24h-3.09v-2.27c-0.52,0.72-1.23,1.32-2.13,1.8
	c-0.9,0.48-1.92,0.72-3.07,0.72c-1.27,0-2.44-0.33-3.5-1c-1.06-0.68-1.9-1.62-2.53-2.82C90.61,16.57,90.3,15.19,90.3,13.66z
	 M102.43,13.72c0-1.05-0.21-1.96-0.65-2.74c-0.41-0.77-0.96-1.36-1.64-1.77C99.47,8.8,98.73,8.6,97.94,8.6
	c-0.79,0-1.52,0.2-2.21,0.61c-0.68,0.39-1.24,0.97-1.67,1.74c-0.41,0.76-0.62,1.66-0.62,2.71c0,1.05,0.21,1.97,0.62,2.77
	c0.43,0.79,0.99,1.4,1.67,1.83c0.7,0.41,1.43,0.61,2.21,0.61c0.79,0,1.52-0.2,2.21-0.61c0.68-0.41,1.23-1,1.64-1.77
	C102.22,15.69,102.43,14.77,102.43,13.72z"/>
<path fill="#136300" d="M117.03,5.86c1.17,0,2.21,0.25,3.12,0.75c0.93,0.5,1.66,1.24,2.18,2.21c0.52,0.98,0.78,2.16,0.78,3.54v8.99
	h-3.04v-8.52c0-1.36-0.33-2.41-0.99-3.13c-0.66-0.74-1.57-1.11-2.72-1.11c-1.15,0-2.06,0.37-2.74,1.11
	c-0.66,0.72-0.99,1.76-0.99,3.13v8.52h-3.07V6.11h3.07v1.74c0.5-0.63,1.14-1.12,1.91-1.47C115.32,6.04,116.15,5.86,117.03,5.86z"/>
<path fill="#136300" d="M126,13.72c0-1.57,0.31-2.94,0.91-4.12c0.63-1.2,1.49-2.12,2.58-2.77c1.09-0.65,2.35-0.97,3.77-0.97
	c1.79,0,3.27,0.44,4.44,1.33c1.18,0.87,1.98,2.11,2.39,3.73h-3.31c-0.27-0.76-0.7-1.35-1.29-1.77c-0.59-0.42-1.34-0.64-2.23-0.64
	c-1.26,0-2.26,0.46-3.01,1.38c-0.74,0.9-1.1,2.18-1.1,3.82s0.37,2.92,1.1,3.84c0.75,0.92,1.76,1.38,3.01,1.38
	c1.77,0,2.95-0.8,3.52-2.41h3.31c-0.43,1.55-1.24,2.78-2.42,3.71c-1.18,0.9-2.65,1.36-4.41,1.36c-1.42,0-2.67-0.32-3.77-0.97
	c-1.09-0.66-1.95-1.59-2.58-2.77C126.31,16.67,126,15.28,126,13.72z"/>
<path fill="#136300" d="M156.73,13.36c0,0.57-0.04,1.09-0.11,1.55H145.3c0.09,1.22,0.53,2.19,1.32,2.93
	c0.79,0.74,1.76,1.11,2.9,1.11c1.65,0,2.82-0.71,3.5-2.13h3.31c-0.45,1.4-1.26,2.55-2.45,3.46c-1.17,0.89-2.62,1.33-4.36,1.33
	c-1.42,0-2.69-0.32-3.82-0.97c-1.11-0.66-1.99-1.59-2.64-2.77c-0.63-1.2-0.94-2.58-0.94-4.15s0.3-2.94,0.91-4.12
	c0.63-1.2,1.5-2.12,2.61-2.77c1.13-0.65,2.42-0.97,3.87-0.97c1.4,0,2.65,0.31,3.74,0.94c1.09,0.63,1.94,1.51,2.55,2.66
	C156.43,10.58,156.73,11.88,156.73,13.36z M153.53,12.36c-0.02-1.16-0.42-2.09-1.21-2.79c-0.79-0.7-1.77-1.05-2.93-1.05
	c-1.06,0-1.96,0.35-2.72,1.05c-0.75,0.68-1.2,1.61-1.35,2.79H153.53z"/>
<path fill="#49AA26" d="M52.59,21.54c-0.56,0-1.02-0.19-1.4-0.58c-0.38-0.39-0.56-0.87-0.56-1.44s0.19-1.05,0.56-1.44
	c0.38-0.39,0.84-0.58,1.4-0.58c0.54,0,1,0.19,1.37,0.58c0.38,0.39,0.56,0.87,0.56,1.44s-0.19,1.05-0.56,1.44
	C53.58,21.35,53.12,21.54,52.59,21.54z"/>
<path fill="#49AA26" d="M172,17.33c0,0.78-0.23,1.51-0.68,2.2c-0.43,0.69-1.09,1.26-1.96,1.73c-0.85,0.47-1.86,0.75-3.04,0.84V24
	h-1.76v-1.9c-1.7-0.14-3.08-0.6-4.13-1.38s-1.57-1.81-1.57-3.09h3.31c0.06,0.61,0.28,1.12,0.68,1.52c0.4,0.39,0.97,0.64,1.71,0.75
	v-5.15c-1.21-0.27-2.2-0.53-2.96-0.8c-0.76-0.28-1.41-0.72-1.95-1.31c-0.52-0.59-0.79-1.41-0.79-2.44c0-1.3,0.52-2.37,1.57-3.21
	c1.05-0.86,2.43-1.36,4.13-1.5V3.6h1.76v1.9c1.59,0.12,2.87,0.56,3.83,1.31c0.98,0.73,1.53,1.75,1.66,3.04h-3.31
	c-0.05-0.48-0.27-0.91-0.65-1.29c-0.38-0.39-0.89-0.66-1.52-0.8v5.06c1.21,0.25,2.2,0.52,2.96,0.8c0.76,0.27,1.4,0.69,1.93,1.29
	C171.74,15.49,172,16.29,172,17.33z M162.01,10.06c0,0.64,0.22,1.14,0.65,1.5c0.45,0.36,1.09,0.65,1.9,0.87V7.7
	c-0.78,0.08-1.4,0.32-1.87,0.73C162.24,8.83,162.01,9.38,162.01,10.06z M166.33,19.9c0.8-0.11,1.42-0.38,1.87-0.82
	c0.45-0.45,0.68-0.99,0.68-1.62c0-0.62-0.23-1.11-0.68-1.45c-0.43-0.36-1.06-0.65-1.87-0.87V19.9z"/>
</svg>
